<svg xmlns="http://www.w3.org/2000/svg" width="18" height="18" viewBox="0 0 18 18" fill="none">
<g>
<path d="M5.25 2.25H3C2.58579 2.25 2.25 2.58579 2.25 3V5.25C2.25 5.66421 2.58579 6 3 6H5.25C5.66421 6 6 5.66421 6 5.25V3C6 2.58579 5.66421 2.25 5.25 2.25Z" fill="black" stroke="black" stroke-width="1.33333" stroke-linecap="round" stroke-linejoin="round"/>
<path d="M15 2.25H12.75C12.3358 2.25 12 2.58579 12 3V5.25C12 5.66421 12.3358 6 12.75 6H15C15.4142 6 15.75 5.66421 15.75 5.25V3C15.75 2.58579 15.4142 2.25 15 2.25Z" fill="black" stroke="black" stroke-width="1.33333" stroke-linecap="round" stroke-linejoin="round"/>
<path d="M5.25 12H3C2.58579 12 2.25 12.3358 2.25 12.75V15C2.25 15.4142 2.58579 15.75 3 15.75H5.25C5.66421 15.75 6 15.4142 6 15V12.75C6 12.3358 5.66421 12 5.25 12Z" fill="black" stroke="black" stroke-width="1.33333" stroke-linecap="round" stroke-linejoin="round"/>
<path d="M15.75 12H13.5C13.1022 12 12.7206 12.158 12.4393 12.4393C12.158 12.7206 12 13.1022 12 13.5V15.75" stroke="black" stroke-width="1.33333" stroke-linecap="round" stroke-linejoin="round"/>
<g>
<path d="M15.75 15.75V15.7567Z" fill="black"/>
<path d="M15.75 15.75V15.7567" stroke="black" stroke-width="1.33333" stroke-linecap="round" stroke-linejoin="round"/>
</g>
<path d="M9 5.25V7.5C9 7.89782 8.84196 8.27935 8.56066 8.56066C8.27935 8.84196 7.89782 9 7.5 9H5.25" stroke="black" stroke-width="1.33333" stroke-linecap="round" stroke-linejoin="round"/>
<g>
<path d="M2.25 9H2.25667Z" fill="black"/>
<path d="M2.25 9H2.25667" stroke="black" stroke-width="1.33333" stroke-linecap="round" stroke-linejoin="round"/>
</g>
<g>
<path d="M9 2.25H9.00667Z" fill="black"/>
<path d="M9 2.25H9.00667" stroke="black" stroke-width="1.33333" stroke-linecap="round" stroke-linejoin="round"/>
</g>
<g>
<path d="M9 12V12.0067Z" fill="black"/>
<path d="M9 12V12.0067" stroke="black" stroke-width="1.33333" stroke-linecap="round" stroke-linejoin="round"/>
</g>
<g>
<path d="M12 9H12.75Z" fill="black"/>
<path d="M12 9H12.75" stroke="black" stroke-width="1.33333" stroke-linecap="round" stroke-linejoin="round"/>
</g>
<g>
<path d="M15.75 9V9.00667Z" fill="black"/>
<path d="M15.75 9V9.00667" stroke="black" stroke-width="1.33333" stroke-linecap="round" stroke-linejoin="round"/>
</g>
<g>
<path d="M9 15.75V15Z" fill="black"/>
<path d="M9 15.75V15" stroke="black" stroke-width="1.33333" stroke-linecap="round" stroke-linejoin="round"/>
</g>
</g>
</svg>
